<mxfile host="app.diagrams.net" agent="Mozilla/5.0 (Macintosh; Intel Mac OS X 10_15_7) AppleWebKit/537.36 (KHTML, like Gecko) Chrome/126.0.0.0 Safari/537.36" version="24.7.5">
  <diagram name="第 1 页" id="ovwnpjsGBwZrBeyQcMWx">
    <mxGraphModel>
      <root>
        <mxCell id="0" />
        <mxCell id="1" parent="0" />
        <mxCell id="2" value="后端" style="whiteSpace=wrap;strokeWidth=2;verticalAlign=top;" vertex="1" parent="1">
          <mxGeometry width="580" height="158" as="geometry" />
        </mxCell>
        <mxCell id="3" value="返回token" style="whiteSpace=wrap;strokeWidth=2;" vertex="1" parent="1">
          <mxGeometry x="468" y="35" width="87" height="34" as="geometry" />
        </mxCell>
        <mxCell id="4" value="接收授权码" style="whiteSpace=wrap;strokeWidth=2;" vertex="1" parent="1">
          <mxGeometry x="93" y="74" width="95" height="34" as="geometry" />
        </mxCell>
        <mxCell id="5" value="GitHub" style="whiteSpace=wrap;strokeWidth=2;verticalAlign=top;" vertex="1" parent="1">
          <mxGeometry x="25" y="193" width="231" height="288" as="geometry" />
        </mxCell>
        <mxCell id="6" value="授权页面" style="whiteSpace=wrap;strokeWidth=2;" vertex="1" parent="5">
          <mxGeometry x="82" y="135" width="79" height="34" as="geometry" />
        </mxCell>
        <mxCell id="7" value="GitHub页面" style="whiteSpace=wrap;strokeWidth=2;" vertex="1" parent="5">
          <mxGeometry x="73" y="33" width="97" height="34" as="geometry" />
        </mxCell>
        <mxCell id="8" value="生成授权码" style="whiteSpace=wrap;strokeWidth=2;" vertex="1" parent="5">
          <mxGeometry x="74" y="237" width="95" height="34" as="geometry" />
        </mxCell>
        <mxCell id="9" value="点击登录按钮" style="curved=1;startArrow=none;endArrow=block;exitX=0.24;exitY=-4.69;entryX=0.19;entryY=-5.68;" edge="1" parent="5" source="7" target="6">
          <mxGeometry relative="1" as="geometry">
            <Array as="points" />
          </mxGeometry>
        </mxCell>
        <mxCell id="10" value="确认授权" style="curved=1;startArrow=none;endArrow=block;exitX=0;exitY=-4.69;entryX=0.08;entryY=-5.68;" edge="1" parent="5" source="6" target="8">
          <mxGeometry relative="1" as="geometry">
            <Array as="points">
              <mxPoint x="76" y="203" />
            </Array>
          </mxGeometry>
        </mxCell>
        <mxCell id="11" value="返回授权码" style="curved=1;startArrow=none;endArrow=block;exitX=0.4;exitY=-5.68;entryX=0.38;entryY=-4.69;" edge="1" parent="5" source="8" target="6">
          <mxGeometry relative="1" as="geometry">
            <Array as="points">
              <mxPoint x="168" y="203" />
            </Array>
          </mxGeometry>
        </mxCell>
        <mxCell id="12" value="用户" style="whiteSpace=wrap;strokeWidth=2;verticalAlign=top;" vertex="1" parent="1">
          <mxGeometry x="443" y="188" width="435" height="120" as="geometry" />
        </mxCell>
        <mxCell id="13" value="发送登录请求" style="whiteSpace=wrap;strokeWidth=2;" vertex="1" parent="1">
          <mxGeometry x="742" y="231" width="111" height="34" as="geometry" />
        </mxCell>
        <mxCell id="14" value="登录页面" style="whiteSpace=wrap;strokeWidth=2;" vertex="1" parent="1">
          <mxGeometry x="472" y="231" width="79" height="34" as="geometry" />
        </mxCell>
        <mxCell id="15" value="输入用户名密码" style="curved=1;startArrow=none;endArrow=block;exitX=1;exitY=0.16;entryX=0;entryY=0.25;" edge="1" parent="1" source="14" target="13">
          <mxGeometry relative="1" as="geometry">
            <Array as="points">
              <mxPoint x="580" y="228" />
              <mxPoint x="661" y="228" />
            </Array>
          </mxGeometry>
        </mxCell>
        <mxCell id="16" value="返回token" style="curved=1;startArrow=none;endArrow=block;exitX=0;exitY=0.71;entryX=1;entryY=0.81;" edge="1" parent="1" source="13" target="14">
          <mxGeometry relative="1" as="geometry">
            <Array as="points">
              <mxPoint x="661" y="267" />
              <mxPoint x="580" y="267" />
            </Array>
          </mxGeometry>
        </mxCell>
        <mxCell id="17" value="生成JWT" style="curved=1;startArrow=none;endArrow=block;exitX=1;exitY=0.22;entryX=0;entryY=0.49;" edge="1" parent="1" source="4" target="3">
          <mxGeometry relative="1" as="geometry">
            <Array as="points">
              <mxPoint x="350" y="52" />
            </Array>
          </mxGeometry>
        </mxCell>
        <mxCell id="18" value="发送授权码和token" style="curved=1;startArrow=none;endArrow=block;exitX=0.38;exitY=-0.01;entryX=1;entryY=0.74;" edge="1" parent="1" source="14" target="4">
          <mxGeometry relative="1" as="geometry">
            <Array as="points">
              <mxPoint x="443" y="129" />
              <mxPoint x="350" y="129" />
            </Array>
          </mxGeometry>
        </mxCell>
        <mxCell id="19" value="校验token" style="curved=1;startArrow=none;endArrow=block;exitX=1;exitY=0.48;entryX=0.41;entryY=-0.01;" edge="1" parent="1" source="4" target="14">
          <mxGeometry relative="1" as="geometry">
            <Array as="points">
              <mxPoint x="443" y="90" />
            </Array>
          </mxGeometry>
        </mxCell>
      </root>
    </mxGraphModel>
  </diagram>
</mxfile>
